<svg width="1833" height="1833" viewBox="0 0 1833 1833" fill="none" xmlns="http://www.w3.org/2000/svg">
<rect width="1833" height="1833" rx="247.455" fill="url(#paint0_linear_753_865)"/>
<path d="M1047.34 309.812C1090.56 239.981 1188.73 233.839 1239.7 298.854L1240.7 300.153C1250.96 313.661 1258.86 330.621 1265.56 342.473L1305.35 411.834L1305.39 411.914C1347.32 486.027 1390.15 560.391 1431.92 634.835C1436.97 643.834 1441.88 653.142 1444.26 663.462C1446.77 674.357 1446.29 685.414 1442.44 698.063L1442.44 698.062C1435.77 720.586 1418.74 738.565 1396.6 746.423C1396.55 746.439 1396.51 746.455 1396.46 746.471C1386.8 749.797 1372.21 750.565 1360.05 750.802C1347.6 751.044 1333.46 750.701 1325.93 750.732C1325.91 750.733 1325.89 750.732 1325.86 750.732L1162.97 750.667V750.666C1151.7 750.667 1136.74 750.397 1120.35 750.454C1104.22 750.51 1089.4 750.907 1080.87 752.053L1080.87 752.052C1067.39 753.913 1054.34 758.183 1042.36 764.653C1018.49 777.705 999.416 802.219 991.965 828.636L991.961 828.649C983.495 858.559 987.431 890.62 1002.88 917.59C1002.89 917.602 1002.9 917.614 1002.9 917.626C1016.65 941.772 1039.26 959.609 1065.94 967.35C1065.95 967.353 1065.96 967.357 1065.98 967.361C1076.32 970.393 1092.15 971.639 1110.15 971.949C1128.23 972.261 1145.42 971.653 1160.36 971.658L1356.63 971.648L1425.99 971.561L1429.05 971.551C1460.1 971.409 1488.78 969.985 1522.63 979.29L1524.29 979.756L1524.3 979.757C1578.32 995.104 1621.07 1030.44 1648.35 1078.4L1649.64 1080.69L1649.65 1080.72C1676.23 1128.91 1682.7 1185.66 1667.64 1238.61C1667.64 1238.64 1667.63 1238.67 1667.62 1238.7C1651.93 1292.62 1615.72 1338.19 1566.83 1365.66C1566.06 1366.13 1565.17 1366.68 1564.12 1367.33C1555.74 1372.49 1538.3 1380.96 1525.5 1387.03C1511.5 1393.67 1496.26 1396.92 1480.97 1396.92H1438.91L1089.52 1396.99H1015.39L975.208 1397.02C973.608 1397.04 971.713 1397.13 969.141 1397.26C966.707 1397.37 963.812 1397.5 960.874 1397.5C955.712 1397.5 947.431 1397.18 940.421 1393.51H940.42C933.149 1389.71 927.904 1382.94 926.011 1374.99V1374.99C926.008 1374.98 926.006 1374.97 926.004 1374.96C925.999 1374.94 925.993 1374.92 925.987 1374.9L925.988 1374.9C924.384 1368.13 925.679 1360.6 928.017 1354.94C930.057 1350 935.856 1339.77 948.092 1338.81H948.099C960.753 1337.82 974.122 1338.11 985.591 1338.12H985.59L1092.95 1338.19H1092.94L1327.19 1338.3L1412.6 1338.26H1412.62C1438.46 1338.28 1465.93 1339.22 1488.08 1334.96C1529.42 1326.67 1565.77 1302.27 1589.07 1267.12L1589.08 1267.12C1611.44 1233.44 1619.62 1192.31 1611.87 1152.63C1606.23 1125.08 1593.14 1099.6 1574.02 1078.97C1519.83 1021.5 1457.57 1030.21 1375.54 1030.3H1172.77C1166.98 1030.3 1159.17 1030.39 1150.21 1030.48C1141.3 1030.57 1131.34 1030.66 1121.47 1030.65C1102.25 1030.63 1081.81 1030.22 1070.11 1028.34V1028.34C1070.1 1028.34 1070.09 1028.34 1070.08 1028.33C1070.08 1028.33 1070.07 1028.33 1070.07 1028.33V1028.33C1045.66 1024.45 1022.39 1015.31 1001.84 1001.59C1001.8 1001.56 1001.75 1001.53 1001.7 1001.5C965.675 976.853 940.651 939.151 931.928 896.376C931.921 896.344 931.915 896.311 931.908 896.279C911.934 794.993 982.394 697.363 1088.15 691.946C1118.65 690.384 1150.81 691.326 1180.28 691.324L1315.9 691.284H1315.94C1337.73 691.326 1358.39 692.568 1377.69 690.408C1378.52 690.315 1381.43 689.105 1384.14 684.971C1386.86 680.824 1386.82 677.631 1386.59 676.866L1386.59 676.859C1384.8 670.871 1381.44 664.004 1377.09 656.301C1374.95 652.512 1372.69 648.723 1370.37 644.85C1368.1 641.044 1365.75 637.116 1363.61 633.32L1308 534.83L1230.29 398.408L1205.4 354.872V354.871C1203.82 352.114 1201.15 347.058 1199.39 343.881C1197.14 339.829 1195.48 337.167 1194.53 336.011V336.01C1166.48 302.098 1115.49 306.702 1094.58 345.127V345.128C1088.28 356.691 1080.71 369.432 1074.48 380.456C1074.47 380.469 1074.47 380.483 1074.46 380.496L1027.19 463.52C1027.19 463.531 1027.18 463.542 1027.17 463.553L865.772 745.385C865.768 745.392 865.764 745.399 865.76 745.406L643.336 1132.35C643.33 1132.36 643.323 1132.37 643.317 1132.38C623.519 1166.63 603.935 1201 584.567 1235.49C584.543 1235.53 584.517 1235.58 584.492 1235.62C579.837 1243.72 572.599 1254.77 567.059 1263.95C561.011 1273.98 555.617 1283.9 552.172 1293.31C548.69 1302.82 547.72 1310.43 548.921 1316.36C549.984 1321.6 553.061 1327.17 561.612 1332.53L561.614 1332.53C563.965 1334 568.749 1335.68 576.57 1336.91C584.059 1338.1 592.957 1338.68 602.477 1338.89C622.587 1339.34 640.337 1338.2 655.089 1338.21H655.134L743.636 1338.58C745.134 1338.57 747.437 1338.49 750.624 1338.37C753.659 1338.26 757.256 1338.14 760.822 1338.1C764.339 1338.07 768.154 1338.11 771.597 1338.39C774.145 1338.6 779.083 1339.08 783.352 1341.22L783.763 1341.44L783.887 1341.5C790.246 1344.97 794.957 1350.86 796.898 1357.88H796.899C800.246 1369.92 796.007 1381.1 791.752 1388.27C791.74 1388.29 791.729 1388.31 791.717 1388.33C788.84 1393.14 783.753 1396.46 777.853 1396.89C756.264 1398.48 715.242 1397.27 694.384 1397.29H694.381L620.926 1397.33H620.919C601.119 1397.34 577.779 1398.6 557.073 1393.85C534.865 1388.76 514.763 1376.76 500.212 1351.1C486.053 1326.13 486.608 1302.98 493.566 1281.82C499.654 1263.31 511.158 1245.28 520.239 1229.75L522.021 1226.67L559.332 1161.37L559.35 1161.34L695.048 925.098L695.049 925.096L928.438 518.896L1013.07 369.687L1013.11 369.62C1024 350.642 1035.26 329.316 1047.34 309.812Z" fill="#FAFAFA" stroke="white" stroke-width="30.55" stroke-linejoin="round"/>
<defs>
<linearGradient id="paint0_linear_753_865" x1="0" y1="0" x2="1833" y2="1833" gradientUnits="userSpaceOnUse">
<stop stop-color="#343434"/>
<stop offset="1"/>
</linearGradient>
</defs>
</svg>
